# xmcd
#
# Track frame offsets:
#       150
#       19126
#       33987
#       57525
#       69932
#       80393
#       99970
#       114649
#       134285
#       153485
#       165360
#       177085
#       206895
#       227360
#       247515
#       268092
#       281398
#       302893
#       325816
#       347733
#
# Disc length: 4758 seconds
#
# Revision: 1
# Processed by: cddbd v1.5.2PL0 Copyright (c) Steve Scherf et al.
# Submitted via: FreeDbEdit v0.1
#
DISCID=07129414
DTITLE=Various Artist - 1000 Original Hits - Jazz 2
DYEAR=1900
DGENRE=Jazz
TTITLE0=US 3 - Cantaloop
TTITLE1=Miles Davis - Summertime
TTITLE2=Stan Getz - Corcovado
TTITLE3=Louis Armstrong - Cabaret
TTITLE4=Astrud Gilberto and Antonio Jobim - Agua de Beber
TTITLE5=Denny Jiosa - Il Dolce per Due (Dessert for 2)
TTITLE6=Glenn Miller - Moonlight Serenade
TTITLE7=John Coltrane - Naima
TTITLE8=Joyce Cooling - Whenever the Rain Falls
TTITLE9=Nat King Cole - Nature Boy
TTITLE10=Natalie Cole - Don't Get Around Mush Anymore
TTITLE11=Spyro Gyra - The River Between
TTITLE12=Bobby McFerrin - Sightless Bird
TTITLE13=Brian Culbertson - You'll Never Find
TTITLE14=Matt Bianco - Whose Side Are You on 9
TTITLE15=Peggy Lee - They Can't Take That Away From Me
TTITLE16=Randy Crawford - Give Me the Night
TTITLE17=Ella Fitzgerald - Mack the Knife
TTITLE18=Manhattan Trancefer - Offbeat of Avenues
TTITLE19=The Mighty Bop - What Now My Love
EXTD=
EXTT0=
EXTT1=
EXTT2=
EXTT3=
EXTT4=
EXTT5=
EXTT6=
EXTT7=
EXTT8=
EXTT9=
EXTT10=
EXTT11=
EXTT12=
EXTT13=
EXTT14=
EXTT15=
EXTT16=
EXTT17=
EXTT18=
EXTT19=
PLAYORDER=
